<?xml version="1.0" encoding="utf-8"?>
<!-- Generator: Adobe Illustrator 24.1.1, SVG Export Plug-In . SVG Version: 6.00 Build 0)  -->
<svg version="1.1" id="Layer_1" xmlns="http://www.w3.org/2000/svg" xmlns:xlink="http://www.w3.org/1999/xlink" x="0px" y="0px"
	 viewBox="0 0 512 512" style="enable-background:new 0 0 512 512;" xml:space="preserve">
<style type="text/css">
	.st0{fill:#333333;}
</style>
<g id="XMLID_1_">
	<path id="XMLID_6_" class="st0" d="M383.8,0H128.2C110.9,0,96,14.2,96,32.2v447.5c0,17.3,14.2,32.2,32.2,32.2h255.6
		c17.3,0,32.2-14.2,32.2-32.2V32.2C415.3,14.2,401.1,0,383.8,0z M255.6,489.2c-22.8,0-41.7-18.9-41.7-41.7
		c0-22.8,18.9-41.7,41.7-41.7s41.7,18.9,41.7,41.7C297.3,470.3,278.4,489.2,255.6,489.2z M383.8,383.8H128.2V63.7h255.6V383.8z"/>
</g>
</svg>
